# xmcd
#
# Track frame offsets: 
#        150
#        22735
#        40092
#        56852
#        73377
#        83552
#        101134
#        120246
#        146101
#        165912
#        180765
#        199944
#        210636
#        224225
#        233851
#        250276
#        277367
#
# Disc length: 4021 seconds
#
# Revision: 1
# Processed by: cddbd v1.5.2PL0 Copyright (c) Steve Scherf et al.
# Submitted via: ExactAudioCopy v0.99pb4
#
DISCID=fd0fb311
DTITLE=Charlie Landsborough - Live From Dublin
DYEAR=2002
DGENRE=Country
TTITLE0=Heaven Knows
TTITLE1=Part Of Me
TTITLE2=God Knoking Your Door
TTITLE3=When You're Not A Dream
TTITLE4=There You Are
TTITLE5=Not Time At All
TTITLE6=A Million Ways To Fall
TTITLE7=What Colour Is The Wind
TTITLE8=How Can You Buy Killarney
TTITLE9=Further Down The Road
TTITLE10=I Will Love You All My Life
TTITLE11=To Each His Own
TTITLE12=Loreto
TTITLE13=You Belong To Me
TTITLE14=Shine Your Light
TTITLE15=Lsle Of Innisfree
TTITLE16=My Forever Friend
EXTD=
EXTT0=
EXTT1=
EXTT2=
EXTT3=
EXTT4=
EXTT5=
EXTT6=
EXTT7=
EXTT8=
EXTT9=
EXTT10=
EXTT11=
EXTT12=
EXTT13=
EXTT14=
EXTT15=
EXTT16=
PLAYORDER=
